<mxfile host="65bd71144e">
    <diagram id="jcE2LT8bqN6RCZ5QFCLc" name="Page-1">
        <mxGraphModel dx="2744" dy="2856" grid="1" gridSize="10" guides="1" tooltips="1" connect="1" arrows="1" fold="1" page="1" pageScale="1" pageWidth="4681" pageHeight="3300" background="#ffffff" math="0" shadow="0">
            <root>
                <mxCell id="0"/>
                <mxCell id="1" parent="0"/>
                <mxCell id="65" value="" style="group" vertex="1" connectable="0" parent="1">
                    <mxGeometry x="240" y="160" width="1010" height="685" as="geometry"/>
                </mxCell>
                <mxCell id="30" value="" style="rounded=1;whiteSpace=wrap;html=1;fillColor=none;" parent="65" vertex="1">
                    <mxGeometry x="830" y="160" width="180" height="420" as="geometry"/>
                </mxCell>
                <mxCell id="20" style="edgeStyle=none;html=1;" parent="65" source="17" edge="1">
                    <mxGeometry relative="1" as="geometry">
                        <mxPoint x="400" y="170" as="targetPoint"/>
                    </mxGeometry>
                </mxCell>
                <mxCell id="51" value="Leader lease" style="edgeLabel;html=1;align=center;verticalAlign=middle;resizable=0;points=[];" parent="20" vertex="1" connectable="0">
                    <mxGeometry x="-0.1909" relative="1" as="geometry">
                        <mxPoint as="offset"/>
                    </mxGeometry>
                </mxCell>
                <mxCell id="24" style="edgeStyle=none;html=1;startArrow=classic;startFill=1;" parent="65" source="17" target="22" edge="1">
                    <mxGeometry relative="1" as="geometry"/>
                </mxCell>
                <mxCell id="52" value="Execute &lt;br&gt;Job&amp;nbsp;" style="edgeLabel;html=1;align=center;verticalAlign=middle;resizable=0;points=[];labelBackgroundColor=default;" parent="24" vertex="1" connectable="0">
                    <mxGeometry x="-0.2451" relative="1" as="geometry">
                        <mxPoint x="1" as="offset"/>
                    </mxGeometry>
                </mxCell>
                <mxCell id="2" value="Actor" style="shape=umlActor;verticalLabelPosition=bottom;verticalAlign=top;html=1;outlineConnect=0;" parent="65" vertex="1">
                    <mxGeometry y="220" width="30" height="60" as="geometry"/>
                </mxCell>
                <mxCell id="13" value="Postgres&lt;br&gt;&lt;div&gt;Cluster&lt;/div&gt;" style="shape=cylinder3;whiteSpace=wrap;html=1;boundedLbl=1;backgroundOutline=1;size=15;" parent="65" vertex="1">
                    <mxGeometry x="351.25" y="555" width="97.5" height="130" as="geometry"/>
                </mxCell>
                <mxCell id="39" style="edgeStyle=none;html=1;entryX=0;entryY=0.5;entryDx=0;entryDy=0;startArrow=classicThin;startFill=1;" parent="65" source="22" target="25" edge="1">
                    <mxGeometry relative="1" as="geometry"/>
                </mxCell>
                <mxCell id="40" style="edgeStyle=none;html=1;entryX=0;entryY=0.5;entryDx=0;entryDy=0;startArrow=classicThin;startFill=1;" parent="65" source="22" target="26" edge="1">
                    <mxGeometry relative="1" as="geometry"/>
                </mxCell>
                <mxCell id="41" style="edgeStyle=none;html=1;entryX=0;entryY=0.5;entryDx=0;entryDy=0;startArrow=classicThin;startFill=1;" parent="65" source="22" target="27" edge="1">
                    <mxGeometry relative="1" as="geometry"/>
                </mxCell>
                <mxCell id="42" style="edgeStyle=none;html=1;entryX=0;entryY=0.5;entryDx=0;entryDy=0;startArrow=classicThin;startFill=1;" parent="65" source="22" target="28" edge="1">
                    <mxGeometry relative="1" as="geometry"/>
                </mxCell>
                <mxCell id="43" style="edgeStyle=none;html=1;entryX=0;entryY=0.5;entryDx=0;entryDy=0;exitX=0.96;exitY=0.951;exitDx=0;exitDy=0;exitPerimeter=0;startArrow=classicThin;startFill=1;" parent="65" source="22" target="29" edge="1">
                    <mxGeometry relative="1" as="geometry"/>
                </mxCell>
                <mxCell id="22" value="Nats JetStream" style="strokeWidth=2;html=1;shape=mxgraph.flowchart.direct_data;whiteSpace=wrap;align=center;" parent="65" vertex="1">
                    <mxGeometry x="570" y="312.5" width="150" height="95" as="geometry"/>
                </mxCell>
                <mxCell id="34" value="" style="group" parent="65" vertex="1" connectable="0">
                    <mxGeometry x="320" y="210" width="160" height="290" as="geometry"/>
                </mxCell>
                <mxCell id="17" value="" style="rounded=0;whiteSpace=wrap;html=1;labelBackgroundColor=none;fontColor=none;noLabel=1;fillColor=none;" parent="34" vertex="1">
                    <mxGeometry width="160" height="290" as="geometry"/>
                </mxCell>
                <mxCell id="3" value="Scheduler 1" style="rounded=0;whiteSpace=wrap;html=1;flipV=1;" parent="34" vertex="1">
                    <mxGeometry x="20" y="20" width="120" height="60" as="geometry"/>
                </mxCell>
                <mxCell id="4" value="Scheduler 2&lt;br&gt;(Leader)" style="rounded=0;whiteSpace=wrap;html=1;" parent="34" vertex="1">
                    <mxGeometry x="20" y="100" width="120" height="60" as="geometry"/>
                </mxCell>
                <mxCell id="5" value="Scheduler 3" style="rounded=0;whiteSpace=wrap;html=1;" parent="34" vertex="1">
                    <mxGeometry x="20" y="180" width="120" height="60" as="geometry"/>
                </mxCell>
                <mxCell id="18" value="Scheduler cluster&lt;br&gt;(active - passive)" style="text;html=1;align=center;verticalAlign=middle;whiteSpace=wrap;rounded=0;" parent="34" vertex="1">
                    <mxGeometry x="10" y="250" width="140" height="30" as="geometry"/>
                </mxCell>
                <mxCell id="35" style="edgeStyle=none;html=1;" parent="65" source="18" target="13" edge="1">
                    <mxGeometry relative="1" as="geometry"/>
                </mxCell>
                <mxCell id="61" value="Job Payload" style="edgeLabel;html=1;align=center;verticalAlign=middle;resizable=0;points=[];" parent="35" vertex="1" connectable="0">
                    <mxGeometry x="0.1822" y="-2" relative="1" as="geometry">
                        <mxPoint as="offset"/>
                    </mxGeometry>
                </mxCell>
                <mxCell id="25" value="Worker 1" style="rounded=1;whiteSpace=wrap;html=1;" parent="65" vertex="1">
                    <mxGeometry x="860" y="180" width="120" height="60" as="geometry"/>
                </mxCell>
                <mxCell id="26" value="Worker 2" style="rounded=1;whiteSpace=wrap;html=1;" parent="65" vertex="1">
                    <mxGeometry x="860" y="253" width="120" height="60" as="geometry"/>
                </mxCell>
                <mxCell id="27" value="Worker 3" style="rounded=1;whiteSpace=wrap;html=1;" parent="65" vertex="1">
                    <mxGeometry x="860" y="325" width="120" height="60" as="geometry"/>
                </mxCell>
                <mxCell id="28" value="Worker 4" style="rounded=1;whiteSpace=wrap;html=1;" parent="65" vertex="1">
                    <mxGeometry x="860" y="398" width="120" height="60" as="geometry"/>
                </mxCell>
                <mxCell id="29" value="Worker 5" style="rounded=1;whiteSpace=wrap;html=1;" parent="65" vertex="1">
                    <mxGeometry x="860" y="470" width="120" height="60" as="geometry"/>
                </mxCell>
                <mxCell id="31" value="Worker Pool" style="text;html=1;align=center;verticalAlign=middle;whiteSpace=wrap;rounded=0;" parent="65" vertex="1">
                    <mxGeometry x="875" y="540" width="90" height="30" as="geometry"/>
                </mxCell>
                <mxCell id="46" value="" style="group" parent="65" vertex="1" connectable="0">
                    <mxGeometry x="300" width="210" height="170" as="geometry"/>
                </mxCell>
                <mxCell id="47" value="Redis cluster for leader election" style="text;html=1;align=center;verticalAlign=middle;whiteSpace=wrap;rounded=0;container=0;" parent="46" vertex="1">
                    <mxGeometry width="210" height="30" as="geometry"/>
                </mxCell>
                <mxCell id="48" value="Redis 3" style="shape=cylinder3;whiteSpace=wrap;html=1;boundedLbl=1;backgroundOutline=1;size=15;" parent="46" vertex="1">
                    <mxGeometry x="40" y="30" width="60" height="80" as="geometry"/>
                </mxCell>
                <mxCell id="49" value="Redis 2" style="shape=cylinder3;whiteSpace=wrap;html=1;boundedLbl=1;backgroundOutline=1;size=15;" parent="46" vertex="1">
                    <mxGeometry x="110" y="40" width="60" height="80" as="geometry"/>
                </mxCell>
                <mxCell id="50" value="Redis 1" style="shape=cylinder3;whiteSpace=wrap;html=1;boundedLbl=1;backgroundOutline=1;size=15;" parent="46" vertex="1">
                    <mxGeometry x="70" y="90" width="60" height="80" as="geometry"/>
                </mxCell>
                <mxCell id="56" value="Actor" style="shape=umlActor;verticalLabelPosition=bottom;verticalAlign=top;html=1;outlineConnect=0;" parent="65" vertex="1">
                    <mxGeometry y="385" width="30" height="60" as="geometry"/>
                </mxCell>
                <mxCell id="57" style="edgeStyle=none;html=1;entryX=0;entryY=0.5;entryDx=0;entryDy=0;" parent="65" target="63" edge="1">
                    <mxGeometry relative="1" as="geometry">
                        <mxPoint x="18.64" y="250.6667359907567" as="sourcePoint"/>
                        <mxPoint x="211.36" y="249.34000000000015" as="targetPoint"/>
                    </mxGeometry>
                </mxCell>
                <mxCell id="58" value="Create&lt;br&gt;Job" style="edgeLabel;html=1;align=center;verticalAlign=middle;resizable=0;points=[];labelBackgroundColor=default;" parent="57" vertex="1" connectable="0">
                    <mxGeometry x="-0.0957" y="-1" relative="1" as="geometry">
                        <mxPoint as="offset"/>
                    </mxGeometry>
                </mxCell>
                <mxCell id="59" style="edgeStyle=none;html=1;entryX=0;entryY=0.5;entryDx=0;entryDy=0;" parent="65" target="63" edge="1">
                    <mxGeometry relative="1" as="geometry">
                        <mxPoint x="18.64" y="420.24109365910414" as="sourcePoint"/>
                        <mxPoint x="209.91999999999996" y="420.0000000000003" as="targetPoint"/>
                    </mxGeometry>
                </mxCell>
                <mxCell id="60" value="Read&lt;br&gt;Job&lt;br&gt;Status" style="edgeLabel;html=1;align=center;verticalAlign=middle;resizable=0;points=[];labelBackgroundColor=default;" parent="59" vertex="1" connectable="0">
                    <mxGeometry x="-0.0026" y="-1" relative="1" as="geometry">
                        <mxPoint as="offset"/>
                    </mxGeometry>
                </mxCell>
                <mxCell id="63" value="Load&lt;br&gt;Balancer" style="whiteSpace=wrap;html=1;aspect=fixed;" parent="65" vertex="1">
                    <mxGeometry x="180" y="305" width="80" height="80" as="geometry"/>
                </mxCell>
                <mxCell id="64" style="edgeStyle=none;html=1;entryX=0.01;entryY=0.471;entryDx=0;entryDy=0;entryPerimeter=0;" parent="65" source="63" target="17" edge="1">
                    <mxGeometry relative="1" as="geometry"/>
                </mxCell>
            </root>
        </mxGraphModel>
    </diagram>
</mxfile>